<mxfile host="app.diagrams.net" agent="Mozilla/5.0 (Macintosh; Intel Mac OS X 10_15_7) AppleWebKit/605.1.15 (KHTML, like Gecko) Version/18.3.1 Safari/605.1.15" version="26.1.1">
  <diagram name="Page-1" id="F__Zn5qzSQYkV1rnkLVV">
    <mxGraphModel dx="1026" dy="719" grid="1" gridSize="10" guides="1" tooltips="1" connect="1" arrows="1" fold="1" page="1" pageScale="1" pageWidth="850" pageHeight="1100" math="0" shadow="0">
      <root>
        <mxCell id="0" />
        <mxCell id="1" parent="0" />
        <mxCell id="hxtnM76SCVqQkaFbG59y-8" style="edgeStyle=orthogonalEdgeStyle;rounded=0;orthogonalLoop=1;jettySize=auto;html=1;startArrow=classic;startFill=1;exitX=1;exitY=0.5;exitDx=0;exitDy=0;" parent="1" source="hxtnM76SCVqQkaFbG59y-1" target="hxtnM76SCVqQkaFbG59y-7" edge="1">
          <mxGeometry relative="1" as="geometry">
            <mxPoint x="470" y="175" as="sourcePoint" />
            <Array as="points">
              <mxPoint x="405" y="138" />
            </Array>
          </mxGeometry>
        </mxCell>
        <mxCell id="hxtnM76SCVqQkaFbG59y-10" style="edgeStyle=orthogonalEdgeStyle;rounded=0;orthogonalLoop=1;jettySize=auto;html=1;entryX=0.75;entryY=0;entryDx=0;entryDy=0;startArrow=classic;startFill=1;" parent="1" source="hxtnM76SCVqQkaFbG59y-7" target="hxtnM76SCVqQkaFbG59y-6" edge="1">
          <mxGeometry relative="1" as="geometry">
            <Array as="points">
              <mxPoint x="253" y="320" />
            </Array>
          </mxGeometry>
        </mxCell>
        <mxCell id="hxtnM76SCVqQkaFbG59y-43" style="edgeStyle=orthogonalEdgeStyle;rounded=0;orthogonalLoop=1;jettySize=auto;html=1;startArrow=classic;startFill=1;entryX=0.75;entryY=0;entryDx=0;entryDy=0;" parent="1" source="hxtnM76SCVqQkaFbG59y-7" target="hxtnM76SCVqQkaFbG59y-30" edge="1">
          <mxGeometry relative="1" as="geometry">
            <mxPoint x="740" y="390" as="targetPoint" />
            <Array as="points">
              <mxPoint x="713" y="320" />
            </Array>
          </mxGeometry>
        </mxCell>
        <mxCell id="hxtnM76SCVqQkaFbG59y-7" value="Internet" style="sketch=0;outlineConnect=0;fontColor=#232F3E;gradientColor=none;strokeColor=#232F3E;fillColor=#ffffff;dashed=0;verticalLabelPosition=bottom;verticalAlign=top;align=center;html=1;fontSize=12;fontStyle=0;aspect=fixed;shape=mxgraph.aws4.resourceIcon;resIcon=mxgraph.aws4.internet;" parent="1" vertex="1">
          <mxGeometry x="340" y="250" width="130" height="130" as="geometry" />
        </mxCell>
        <mxCell id="hxtnM76SCVqQkaFbG59y-11" value="Client1 Network" style="text;html=1;align=center;verticalAlign=middle;whiteSpace=wrap;rounded=0;" parent="1" vertex="1">
          <mxGeometry x="117.5" y="410" width="115" height="30" as="geometry" />
        </mxCell>
        <mxCell id="hxtnM76SCVqQkaFbG59y-46" value="" style="group" parent="1" vertex="1" connectable="0">
          <mxGeometry x="20" y="440" width="310" height="210" as="geometry" />
        </mxCell>
        <mxCell id="hxtnM76SCVqQkaFbG59y-6" value="" style="rounded=1;whiteSpace=wrap;html=1;dashed=1;dashPattern=8 8;" parent="hxtnM76SCVqQkaFbG59y-46" vertex="1">
          <mxGeometry width="310" height="210" as="geometry" />
        </mxCell>
        <mxCell id="hxtnM76SCVqQkaFbG59y-15" value="Server 1" style="sketch=0;outlineConnect=0;fontColor=#232F3E;gradientColor=none;fillColor=#232F3D;strokeColor=none;dashed=0;verticalLabelPosition=bottom;verticalAlign=top;align=center;html=1;fontSize=12;fontStyle=0;aspect=fixed;pointerEvents=1;shape=mxgraph.aws4.traditional_server;" parent="hxtnM76SCVqQkaFbG59y-46" vertex="1">
          <mxGeometry x="32.5" y="100" width="45" height="78" as="geometry" />
        </mxCell>
        <mxCell id="hxtnM76SCVqQkaFbG59y-16" value="Server 2" style="sketch=0;outlineConnect=0;fontColor=#232F3E;gradientColor=none;fillColor=#232F3D;strokeColor=none;dashed=0;verticalLabelPosition=bottom;verticalAlign=top;align=center;html=1;fontSize=12;fontStyle=0;aspect=fixed;pointerEvents=1;shape=mxgraph.aws4.traditional_server;" parent="hxtnM76SCVqQkaFbG59y-46" vertex="1">
          <mxGeometry x="132.5" y="100" width="45" height="78" as="geometry" />
        </mxCell>
        <mxCell id="hxtnM76SCVqQkaFbG59y-17" value="Server n" style="sketch=0;outlineConnect=0;fontColor=#232F3E;gradientColor=none;fillColor=#232F3D;strokeColor=none;dashed=0;verticalLabelPosition=bottom;verticalAlign=top;align=center;html=1;fontSize=12;fontStyle=0;aspect=fixed;pointerEvents=1;shape=mxgraph.aws4.traditional_server;" parent="hxtnM76SCVqQkaFbG59y-46" vertex="1">
          <mxGeometry x="232.5" y="100" width="45" height="78" as="geometry" />
        </mxCell>
        <mxCell id="hxtnM76SCVqQkaFbG59y-25" value="" style="group" parent="hxtnM76SCVqQkaFbG59y-46" vertex="1" connectable="0">
          <mxGeometry x="30" y="20" width="50" height="50" as="geometry" />
        </mxCell>
        <mxCell id="hxtnM76SCVqQkaFbG59y-12" value="Endpoint Linux" style="shape=mxgraph.signs.tech.computer;html=1;pointerEvents=1;fillColor=#000000;strokeColor=none;verticalLabelPosition=bottom;verticalAlign=top;align=center;" parent="hxtnM76SCVqQkaFbG59y-25" vertex="1">
          <mxGeometry width="50" height="50" as="geometry" />
        </mxCell>
        <mxCell id="hxtnM76SCVqQkaFbG59y-18" value="" style="shape=image;verticalLabelPosition=bottom;labelBackgroundColor=default;verticalAlign=top;aspect=fixed;imageAspect=0;image=https://cdn.freelogovectors.net/wp-content/uploads/2023/07/linux-logo-02-freelogovectors.net_.png;" parent="hxtnM76SCVqQkaFbG59y-25" vertex="1">
          <mxGeometry x="5" y="3" width="40" height="30" as="geometry" />
        </mxCell>
        <mxCell id="hxtnM76SCVqQkaFbG59y-27" value="" style="group" parent="hxtnM76SCVqQkaFbG59y-46" vertex="1" connectable="0">
          <mxGeometry x="132.5" y="20" width="50" height="50" as="geometry" />
        </mxCell>
        <mxCell id="hxtnM76SCVqQkaFbG59y-13" value="Endpoint Windows" style="shape=mxgraph.signs.tech.computer;html=1;pointerEvents=1;fillColor=#000000;strokeColor=none;verticalLabelPosition=bottom;verticalAlign=top;align=center;" parent="hxtnM76SCVqQkaFbG59y-27" vertex="1">
          <mxGeometry width="50" height="50" as="geometry" />
        </mxCell>
        <mxCell id="hxtnM76SCVqQkaFbG59y-19" value="" style="shape=image;verticalLabelPosition=bottom;labelBackgroundColor=default;verticalAlign=top;aspect=fixed;imageAspect=0;image=https://images.icon-icons.com/3398/PNG/512/windows_logo_icon_214749.png;" parent="hxtnM76SCVqQkaFbG59y-27" vertex="1">
          <mxGeometry x="6.5" width="37" height="37" as="geometry" />
        </mxCell>
        <mxCell id="hxtnM76SCVqQkaFbG59y-28" value="" style="group" parent="hxtnM76SCVqQkaFbG59y-46" vertex="1" connectable="0">
          <mxGeometry x="232.5" y="20" width="50" height="50" as="geometry" />
        </mxCell>
        <mxCell id="hxtnM76SCVqQkaFbG59y-14" value="Endpoint MacOS" style="shape=mxgraph.signs.tech.computer;html=1;pointerEvents=1;fillColor=#000000;strokeColor=none;verticalLabelPosition=bottom;verticalAlign=top;align=center;" parent="hxtnM76SCVqQkaFbG59y-28" vertex="1">
          <mxGeometry width="50" height="50" as="geometry" />
        </mxCell>
        <mxCell id="hxtnM76SCVqQkaFbG59y-22" value="" style="shape=image;verticalLabelPosition=bottom;labelBackgroundColor=default;verticalAlign=top;aspect=fixed;imageAspect=0;image=https://www.computerhope.com/jargon/m/mac-os-x.png;" parent="hxtnM76SCVqQkaFbG59y-28" vertex="1">
          <mxGeometry x="10" y="3.0500000000000114" width="30" height="30.9" as="geometry" />
        </mxCell>
        <mxCell id="hxtnM76SCVqQkaFbG59y-47" value="" style="group" parent="1" vertex="1" connectable="0">
          <mxGeometry x="480" y="410" width="310" height="240" as="geometry" />
        </mxCell>
        <mxCell id="hxtnM76SCVqQkaFbG59y-30" value="" style="rounded=1;whiteSpace=wrap;html=1;dashed=1;dashPattern=8 8;" parent="hxtnM76SCVqQkaFbG59y-47" vertex="1">
          <mxGeometry y="30" width="310" height="210" as="geometry" />
        </mxCell>
        <mxCell id="hxtnM76SCVqQkaFbG59y-31" value="Server 1" style="sketch=0;outlineConnect=0;fontColor=#232F3E;gradientColor=none;fillColor=#232F3D;strokeColor=none;dashed=0;verticalLabelPosition=bottom;verticalAlign=top;align=center;html=1;fontSize=12;fontStyle=0;aspect=fixed;pointerEvents=1;shape=mxgraph.aws4.traditional_server;" parent="hxtnM76SCVqQkaFbG59y-47" vertex="1">
          <mxGeometry x="32.5" y="130" width="45" height="78" as="geometry" />
        </mxCell>
        <mxCell id="hxtnM76SCVqQkaFbG59y-32" value="Server 2" style="sketch=0;outlineConnect=0;fontColor=#232F3E;gradientColor=none;fillColor=#232F3D;strokeColor=none;dashed=0;verticalLabelPosition=bottom;verticalAlign=top;align=center;html=1;fontSize=12;fontStyle=0;aspect=fixed;pointerEvents=1;shape=mxgraph.aws4.traditional_server;" parent="hxtnM76SCVqQkaFbG59y-47" vertex="1">
          <mxGeometry x="132.5" y="130" width="45" height="78" as="geometry" />
        </mxCell>
        <mxCell id="hxtnM76SCVqQkaFbG59y-33" value="Server n" style="sketch=0;outlineConnect=0;fontColor=#232F3E;gradientColor=none;fillColor=#232F3D;strokeColor=none;dashed=0;verticalLabelPosition=bottom;verticalAlign=top;align=center;html=1;fontSize=12;fontStyle=0;aspect=fixed;pointerEvents=1;shape=mxgraph.aws4.traditional_server;" parent="hxtnM76SCVqQkaFbG59y-47" vertex="1">
          <mxGeometry x="232.5" y="130" width="45" height="78" as="geometry" />
        </mxCell>
        <mxCell id="hxtnM76SCVqQkaFbG59y-34" value="" style="group" parent="hxtnM76SCVqQkaFbG59y-47" vertex="1" connectable="0">
          <mxGeometry x="30" y="50" width="50" height="50" as="geometry" />
        </mxCell>
        <mxCell id="hxtnM76SCVqQkaFbG59y-35" value="Endpoint Linux" style="shape=mxgraph.signs.tech.computer;html=1;pointerEvents=1;fillColor=#000000;strokeColor=none;verticalLabelPosition=bottom;verticalAlign=top;align=center;" parent="hxtnM76SCVqQkaFbG59y-34" vertex="1">
          <mxGeometry width="50" height="50" as="geometry" />
        </mxCell>
        <mxCell id="hxtnM76SCVqQkaFbG59y-36" value="" style="shape=image;verticalLabelPosition=bottom;labelBackgroundColor=default;verticalAlign=top;aspect=fixed;imageAspect=0;image=https://cdn.freelogovectors.net/wp-content/uploads/2023/07/linux-logo-02-freelogovectors.net_.png;" parent="hxtnM76SCVqQkaFbG59y-34" vertex="1">
          <mxGeometry x="5" y="3" width="40" height="30" as="geometry" />
        </mxCell>
        <mxCell id="hxtnM76SCVqQkaFbG59y-37" value="" style="group" parent="hxtnM76SCVqQkaFbG59y-47" vertex="1" connectable="0">
          <mxGeometry x="132.5" y="50" width="50" height="50" as="geometry" />
        </mxCell>
        <mxCell id="hxtnM76SCVqQkaFbG59y-38" value="Endpoint Windows" style="shape=mxgraph.signs.tech.computer;html=1;pointerEvents=1;fillColor=#000000;strokeColor=none;verticalLabelPosition=bottom;verticalAlign=top;align=center;" parent="hxtnM76SCVqQkaFbG59y-37" vertex="1">
          <mxGeometry width="50" height="50" as="geometry" />
        </mxCell>
        <mxCell id="hxtnM76SCVqQkaFbG59y-39" value="" style="shape=image;verticalLabelPosition=bottom;labelBackgroundColor=default;verticalAlign=top;aspect=fixed;imageAspect=0;image=https://images.icon-icons.com/3398/PNG/512/windows_logo_icon_214749.png;" parent="hxtnM76SCVqQkaFbG59y-37" vertex="1">
          <mxGeometry x="6.5" width="37" height="37" as="geometry" />
        </mxCell>
        <mxCell id="hxtnM76SCVqQkaFbG59y-40" value="" style="group" parent="hxtnM76SCVqQkaFbG59y-47" vertex="1" connectable="0">
          <mxGeometry x="232.5" y="50" width="50" height="50" as="geometry" />
        </mxCell>
        <mxCell id="hxtnM76SCVqQkaFbG59y-41" value="Endpoint MacOS" style="shape=mxgraph.signs.tech.computer;html=1;pointerEvents=1;fillColor=#000000;strokeColor=none;verticalLabelPosition=bottom;verticalAlign=top;align=center;" parent="hxtnM76SCVqQkaFbG59y-40" vertex="1">
          <mxGeometry width="50" height="50" as="geometry" />
        </mxCell>
        <mxCell id="hxtnM76SCVqQkaFbG59y-42" value="" style="shape=image;verticalLabelPosition=bottom;labelBackgroundColor=default;verticalAlign=top;aspect=fixed;imageAspect=0;image=https://www.computerhope.com/jargon/m/mac-os-x.png;" parent="hxtnM76SCVqQkaFbG59y-40" vertex="1">
          <mxGeometry x="10" y="3.0500000000000114" width="30" height="30.9" as="geometry" />
        </mxCell>
        <mxCell id="hxtnM76SCVqQkaFbG59y-45" value="Client2 Network" style="text;html=1;align=center;verticalAlign=middle;whiteSpace=wrap;rounded=0;" parent="hxtnM76SCVqQkaFbG59y-47" vertex="1">
          <mxGeometry x="100" width="115" height="30" as="geometry" />
        </mxCell>
        <mxCell id="hxtnM76SCVqQkaFbG59y-1" value="" style="rounded=1;whiteSpace=wrap;html=1;dashed=1;dashPattern=8 8;" parent="1" vertex="1">
          <mxGeometry x="40" y="66.25" width="220" height="143.75" as="geometry" />
        </mxCell>
        <mxCell id="hxtnM76SCVqQkaFbG59y-2" value="MITRE Caldera Server" style="rounded=0;whiteSpace=wrap;html=1;" parent="1" vertex="1">
          <mxGeometry x="58.70967741935483" y="92.5" width="112.25806451612901" height="52.5" as="geometry" />
        </mxCell>
        <mxCell id="hxtnM76SCVqQkaFbG59y-3" value="NoLogin Network" style="text;html=1;align=center;verticalAlign=middle;whiteSpace=wrap;rounded=0;" parent="1" vertex="1">
          <mxGeometry x="96.20967741935482" y="40" width="107.5806451612903" height="26.25" as="geometry" />
        </mxCell>
        <mxCell id="hxtnM76SCVqQkaFbG59y-50" value="&lt;h1 style=&quot;margin-top: 0px;&quot;&gt;Los agentes de MITRE Caldera&lt;/h1&gt;&lt;p&gt;Los agentes se instalan mediante un script proporcionado por el propio MITRE Caldera. El único requisito de red es que puedan tener conexión Caldera y el agente.&lt;/p&gt;&lt;p&gt;El agente de MITRE Caldera se puede instalar en equipos Linux, Windows y MacOS&lt;/p&gt;" style="text;html=1;whiteSpace=wrap;overflow=hidden;rounded=0;" parent="1" vertex="1">
          <mxGeometry x="470" y="50" width="370" height="210" as="geometry" />
        </mxCell>
        <mxCell id="3CBS1sJ94XPc9CEhDGH4-1" value="" style="endArrow=classic;startArrow=classic;html=1;rounded=0;entryX=1;entryY=0.5;entryDx=0;entryDy=0;exitX=1;exitY=0.5;exitDx=0;exitDy=0;" edge="1" parent="1" source="hxtnM76SCVqQkaFbG59y-2" target="hxtnM76SCVqQkaFbG59y-1">
          <mxGeometry width="50" height="50" relative="1" as="geometry">
            <mxPoint x="120" y="330" as="sourcePoint" />
            <mxPoint x="170" y="280" as="targetPoint" />
          </mxGeometry>
        </mxCell>
      </root>
    </mxGraphModel>
  </diagram>
</mxfile>
